<?xml version="1.0" standalone="no"?>
<!DOCTYPE svg PUBLIC "-//W3C//DTD SVG 20010904//EN"
 "http://www.w3.org/TR/2001/REC-SVG-20010904/DTD/svg10.dtd">
<svg version="1.0" color="#5bbad5" xmlns="http://www.w3.org/2000/svg"
 width="959.000000pt" height="959.000000pt" viewBox="0 0 959.000000 959.000000"
 preserveAspectRatio="xMidYMid meet">
<metadata>
Created by potrace 1.11, written by Peter Selinger 2001-2013
</metadata>
<g transform="translate(0.000000,959.000000) scale(0.100000,-0.100000)"
fill="#000000" stroke="none">
<path d="M5085 8944 c-11 -2 -45 -9 -75 -15 -122 -23 -255 -77 -348 -141 -57
-39 -189 -199 -219 -265 -67 -145 -26 -365 90 -484 109 -113 228 -179 337
-187 133 -9 353 72 455 169 82 77 115 141 115 221 0 54 -5 72 -29 111 -35 55
-112 114 -161 123 -21 5 -69 0 -120 -10 -92 -19 -146 -50 -156 -90 -8 -34 20
-108 49 -130 43 -32 117 4 132 67 8 31 23 34 65 12 66 -34 39 -121 -62 -203
-68 -56 -114 -72 -209 -72 -83 0 -129 23 -219 112 -82 80 -100 115 -100 188 0
116 107 228 314 329 133 65 207 84 305 79 104 -4 173 -40 255 -131 74 -82 102
-134 117 -211 13 -74 5 -125 -33 -201 -41 -82 -97 -146 -255 -288 -73 -66
-142 -134 -152 -151 -17 -27 -29 -32 -91 -42 -39 -7 -99 -26 -133 -42 -34 -16
-120 -51 -192 -76 -244 -87 -416 -171 -746 -366 -176 -105 -232 -145 -343
-247 -38 -35 -138 -118 -222 -184 -85 -66 -193 -157 -241 -202 -154 -143 -426
-419 -500 -508 -102 -121 -213 -291 -247 -379 -16 -41 -42 -91 -57 -110 -39
-50 -44 -103 -20 -251 19 -125 38 -183 63 -191 10 -4 8 -21 -7 -74 -17 -57
-24 -69 -40 -66 -228 29 -518 36 -600 13 -151 -41 -240 -88 -309 -161 -82 -88
-106 -174 -105 -390 0 -133 11 -233 38 -345 11 -44 29 -118 39 -165 32 -139
69 -250 113 -335 77 -151 131 -183 329 -196 142 -10 165 -8 345 32 71 16 132
29 135 29 4 0 12 -22 19 -48 11 -43 9 -57 -11 -128 -30 -104 -32 -323 -5 -424
27 -98 106 -255 174 -345 72 -97 231 -250 339 -327 419 -299 996 -487 1649
-539 209 -16 625 -6 820 20 837 114 1448 449 1664 913 53 111 71 183 77 303 3
55 16 150 29 210 13 61 34 164 46 230 12 66 25 123 28 127 4 4 57 3 118 -4 84
-9 152 -9 279 0 377 26 496 75 553 227 32 85 41 135 56 315 19 216 19 563 0
704 -31 235 -96 365 -210 417 -31 14 -65 19 -151 19 -147 0 -239 -26 -451
-130 -90 -43 -165 -75 -168 -71 -2 5 -16 73 -30 152 -14 79 -30 164 -35 189
-9 43 -8 46 21 70 48 40 69 80 69 131 0 63 -44 213 -79 270 -20 32 -27 55 -24
73 15 79 -81 238 -250 415 -62 64 -170 183 -241 264 -145 166 -195 214 -305
291 -42 30 -146 114 -231 186 -85 73 -218 180 -295 238 -77 58 -201 155 -275
217 -74 61 -161 130 -193 154 -32 24 -56 49 -54 55 1 6 53 45 115 86 188 126
311 265 352 397 15 50 20 93 20 182 0 270 -95 443 -298 544 l-85 42 -161 2
c-89 1 -170 0 -181 -3z m-103 -1467 c48 -190 126 -379 219 -533 52 -86 69
-100 99 -84 21 11 24 18 45 120 22 106 110 397 125 414 10 11 59 -24 60 -43 0
-7 -13 -70 -29 -140 -17 -69 -33 -154 -37 -188 -8 -71 -3 -75 63 -48 66 28
236 67 315 72 62 5 82 2 103 -11 14 -9 25 -20 25 -25 0 -5 -30 -12 -67 -16
-93 -9 -253 -52 -468 -125 -99 -33 -185 -60 -193 -60 -7 0 -48 26 -90 58 -42
32 -117 86 -167 120 -49 34 -108 74 -130 90 -44 31 -199 140 -310 217 -38 27
-74 52 -79 56 -4 4 10 17 33 28 l41 22 73 -64 c208 -181 438 -330 482 -313 18
6 15 15 -47 141 -62 126 -95 212 -114 296 -16 69 -16 73 2 86 9 7 20 11 23 8
2 -3 13 -38 23 -78z m-779 -333 c129 -91 298 -237 427 -372 77 -80 140 -151
140 -157 0 -6 -50 -35 -112 -65 -217 -106 -517 -324 -648 -471 -36 -40 -71
-78 -78 -86 -7 -7 -31 -13 -53 -13 l-40 0 63 76 c144 175 330 326 541 440 61
33 112 65 112 70 0 23 -51 12 -144 -31 -279 -128 -549 -308 -781 -521 -58 -53
-76 -64 -105 -64 -19 0 -35 4 -35 8 0 18 198 195 340 304 110 84 225 158 378
244 67 37 122 71 122 75 0 18 -91 33 -190 32 -260 -2 -640 -100 -929 -238 -62
-30 -116 -55 -118 -55 -3 0 22 29 54 65 89 100 207 149 528 224 242 56 286 61
547 62 128 1 274 4 323 8 l90 7 -145 145 c-131 131 -286 268 -349 310 -15 9
-21 20 -17 27 11 18 22 15 79 -24z m2057 -364 c19 -12 15 -15 -54 -35 -65 -18
-270 -118 -354 -172 -46 -29 -53 -37 -50 -61 5 -41 43 -40 161 6 94 37 203 72
320 102 61 16 159 18 164 4 2 -7 -26 -16 -73 -24 -177 -28 -368 -92 -403 -134
-19 -23 -5 -38 99 -112 55 -38 150 -123 225 -198 110 -111 127 -131 108 -134
-18 -3 -51 25 -145 120 -184 185 -322 290 -362 275 -36 -14 -16 -51 87 -156
99 -101 167 -184 167 -203 0 -4 -13 -8 -29 -8 -22 0 -34 9 -53 38 -63 95 -259
336 -340 418 l-89 91 23 15 c60 40 489 176 558 177 14 0 32 -3 40 -9z m-1113
-565 c65 -75 120 -140 121 -145 9 -25 -32 -6 -61 27 -86 101 -131 143 -140
134 -6 -6 -11 -49 -11 -96 -1 -97 -19 -117 -24 -25 -2 41 -7 60 -16 60 -21 0
-91 -55 -127 -99 -29 -37 -69 -55 -69 -32 0 11 68 92 107 129 23 21 24 42 1
42 -6 0 -78 -43 -160 -95 -114 -72 -158 -95 -184 -95 -19 0 -34 2 -34 4 0 11
119 116 198 174 82 60 242 150 269 151 7 1 66 -60 130 -134z m217 -291 c9 -25
7 -73 -6 -115 l-11 -39 -59 0 -58 0 0 85 0 85 64 0 c49 0 65 -4 70 -16z m238
-29 c3 -22 4 -59 1 -82 l-6 -43 -62 0 -63 0 9 38 c5 20 9 59 9 85 l0 48 52 -3
53 -3 7 -40z m232 -17 c-1 -32 -7 -71 -14 -88 -11 -27 -17 -30 -56 -30 l-44 0
0 90 0 91 58 -3 57 -3 -1 -57z m216 52 c34 0 48 -30 52 -115 l3 -60 -79 2
c-43 1 -80 4 -82 6 -2 2 0 28 6 57 5 29 10 68 10 88 0 33 1 34 31 28 17 -3 44
-6 59 -6z m-952 -9 c9 -5 12 -29 10 -82 l-3 -74 -77 -3 -78 -3 0 80 0 80 63 4
c34 2 64 4 67 5 3 1 11 -2 18 -7z m1194 -19 c14 -14 21 -77 14 -126 -7 -42
-10 -46 -34 -46 -15 0 -32 4 -38 8 -6 4 -13 46 -16 96 l-5 88 35 -6 c20 -3 39
-9 44 -14z m-1464 -74 l3 -78 -69 0 c-78 0 -82 4 -82 83 0 67 12 78 83 75 l62
-3 3 -77z m-266 0 c2 -40 3 -74 3 -74 0 -1 -37 -5 -82 -9 l-83 -7 0 63 c0 35
4 69 8 76 4 6 34 14 67 16 33 2 65 4 72 5 7 1 13 -22 15 -70z m1979 40 c12
-18 11 -155 0 -163 -5 -3 -34 -2 -65 1 l-55 7 2 89 2 90 54 -5 c30 -3 58 -12
62 -19z m-2261 -62 l0 -64 -67 -4 c-38 -2 -71 -2 -75 0 -10 4 -11 116 -1 125
3 4 37 7 75 7 l68 0 0 -64z m-270 -10 l0 -63 -46 -7 c-26 -3 -70 -6 -99 -6
l-52 0 -7 46 c-12 93 -16 90 122 93 l82 1 0 -64z m2753 40 c11 -16 2 -95 -16
-137 -14 -35 -17 -36 -49 -30 -26 5 -33 12 -32 29 0 12 1 54 2 92 l2 70 43 -6
c23 -4 46 -12 50 -18z m-3078 -29 c4 -24 5 -56 3 -73 -3 -29 -4 -29 -86 -38
-111 -11 -116 -9 -110 60 3 30 9 59 14 64 5 5 43 13 84 18 41 5 78 10 82 11 4
0 10 -18 13 -42z m3259 17 c21 -8 20 -60 -3 -139 -16 -57 -18 -60 -46 -57 -17
2 -31 5 -33 7 -2 2 3 32 12 67 9 36 16 79 16 96 0 33 16 41 54 26z m-3571 -86
c3 -35 3 -66 -1 -69 -7 -7 -163 -31 -167 -27 -9 10 -14 106 -6 117 5 8 38 20
73 27 100 19 94 22 101 -48z m-301 0 c3 -7 6 -36 7 -64 3 -59 0 -60 -85 -70
l-54 -7 0 59 c0 33 4 64 8 70 15 23 117 33 124 12z m4031 -25 c15 -38 40 -117
50 -160 7 -30 -5 -29 -65 4 -40 22 -48 31 -44 47 4 12 12 49 18 84 7 34 15 62
19 62 3 0 13 -17 22 -37z m-4281 -63 c0 -33 1 -65 2 -72 1 -13 -102 -50 -117
-41 -14 8 -2 123 15 139 11 10 63 30 91 33 4 1 8 -26 9 -59z m2913 -10 c214
-7 420 -18 530 -30 390 -44 786 -132 751 -167 -3 -3 3 -20 13 -37 20 -34 29
-76 108 -516 11 -62 17 -186 20 -458 5 -335 3 -394 -16 -575 -17 -161 -75
-511 -86 -525 -1 -2 -15 21 -30 50 -76 146 -212 307 -364 430 -313 253 -783
450 -1296 542 -429 77 -895 86 -1320 25 -670 -96 -1241 -377 -1500 -738 -45
-63 -45 -64 -69 80 -30 182 -47 398 -41 534 17 360 50 574 124 807 84 263 113
321 167 344 101 42 392 100 769 153 276 39 553 54 1275 72 250 6 457 12 459
15 7 6 121 5 506 -6z m-3151 -92 c7 -59 6 -64 -16 -78 -13 -8 -33 -24 -45 -36
l-21 -21 -6 30 c-14 68 -7 95 31 132 20 19 39 35 43 35 4 0 11 -28 14 -62z
m-54 -209 c0 -5 -4 -9 -10 -9 -5 0 -10 7 -10 16 0 8 5 12 10 9 6 -3 10 -10 10
-16z m5463 -299 c43 -37 85 -130 104 -228 20 -107 28 -505 14 -689 -20 -255
-45 -366 -94 -410 -55 -50 -269 -85 -532 -87 -195 -1 -220 4 -231 50 -3 13 -3
54 1 91 l7 66 60 -7 c33 -3 87 -13 121 -22 81 -21 259 -15 336 11 86 30 153
75 178 121 50 90 67 185 65 366 -2 251 -38 432 -96 489 -87 85 -322 77 -546
-20 -51 -22 -96 -38 -98 -36 -3 2 -5 30 -6 62 l-1 58 170 86 c205 103 283 127
417 128 94 1 98 0 131 -29z m-5814 -101 c190 -18 196 -20 199 -54 3 -30 2 -30
-62 -43 -36 -6 -86 -12 -110 -12 -157 0 -276 -42 -358 -127 -94 -97 -132 -248
-110 -446 19 -170 91 -369 164 -453 57 -64 92 -74 281 -75 l165 0 7 -40 c4
-22 5 -43 2 -45 -9 -9 -198 -53 -265 -62 -37 -4 -117 -5 -178 -2 -134 8 -164
22 -211 100 -30 51 -113 291 -128 370 -3 19 -18 85 -33 145 -24 99 -26 129
-27 305 0 184 1 198 23 242 30 61 89 114 167 149 124 56 252 69 474 48z m153
-346 c-15 -128 -22 -600 -9 -670 12 -70 -2 -76 -160 -71 -128 4 -134 6 -161
31 -37 36 -75 114 -108 222 -22 73 -28 116 -31 225 -4 120 -3 141 16 191 12
31 37 73 56 93 54 57 105 75 257 87 73 6 135 12 137 15 14 14 15 -20 3 -123z
m5485 121 c42 -11 71 -145 80 -364 5 -114 2 -162 -11 -228 -21 -105 -32 -128
-70 -151 -98 -59 -209 -67 -405 -31 l-133 24 6 51 c3 27 6 168 6 313 l0 263
97 45 c54 25 132 54 173 64 73 18 213 26 257 14z m-2752 -439 c1084 -123 1896
-645 1932 -1241 14 -233 -75 -433 -283 -634 -257 -248 -641 -422 -1144 -519
-365 -71 -882 -81 -1270 -25 -840 122 -1514 490 -1736 950 -183 381 -26 784
421 1076 358 233 813 366 1420 412 106 8 527 -4 660 -19z"/>
<path d="M4024 4959 c-116 -26 -196 -216 -144 -338 40 -91 106 -131 219 -133
54 -1 75 3 104 21 108 67 166 223 121 329 -44 106 -159 152 -300 121z"/>
<path d="M5085 4926 c-88 -28 -156 -81 -181 -142 -17 -40 -18 -131 -3 -171 29
-78 101 -115 230 -121 82 -4 101 -1 136 16 22 12 47 32 56 46 21 32 38 105 40
176 1 47 -4 62 -33 107 -53 81 -156 118 -245 89z"/>
<path d="M4510 4120 c-39 -39 -14 -100 42 -100 33 0 58 29 58 68 0 51 -61 71
-100 32z"/>
<path d="M4742 4130 c-32 -13 -48 -53 -34 -85 15 -32 52 -41 90 -21 41 21 49
51 25 85 -22 29 -46 35 -81 21z"/>
<path d="M3563 3491 c-80 -50 -132 -227 -119 -411 10 -159 75 -331 139 -370
32 -20 238 -104 332 -135 96 -32 241 -65 355 -81 152 -21 412 -14 552 16 302
64 606 219 851 434 38 34 81 71 96 84 l28 22 39 -57 c21 -32 45 -64 53 -70 23
-20 69 -15 92 8 29 29 19 57 -44 132 -68 81 -99 152 -106 248 -3 42 -12 83
-20 93 -17 20 -65 21 -85 0 -20 -19 -22 -119 -4 -194 l12 -52 -35 -31 c-301
-279 -582 -433 -914 -502 -124 -26 -366 -31 -505 -11 -174 26 -185 30 -222 84
-61 88 -200 408 -268 613 -33 100 -49 134 -75 159 -43 42 -105 50 -152 21z
m136 -282 c10 -30 8 -33 -56 -99 -37 -38 -71 -66 -75 -64 -4 3 -8 20 -8 38 0
26 12 46 56 94 31 34 59 62 64 62 4 0 13 -14 19 -31z m101 -255 l20 -47 -42
-63 c-24 -35 -50 -63 -58 -64 -8 0 -30 9 -48 20 -32 20 -32 21 -17 49 15 29
112 151 120 151 2 0 13 -21 25 -46z"/>
<path d="M2040 2866 c-36 -13 -100 -39 -142 -59 -66 -30 -80 -41 -98 -77 l-22
-43 33 -63 c62 -122 135 -175 214 -153 38 11 74 50 82 91 4 19 12 28 25 28 28
0 76 27 88 49 14 28 12 96 -4 135 -14 34 -86 116 -102 116 -5 0 -38 -11 -74
-24z m79 -102 c24 -30 28 -84 8 -84 -16 0 -49 35 -67 69 -10 19 -9 25 1 32 23
14 37 10 58 -17z m-134 -86 c37 -56 44 -98 21 -117 -11 -9 -20 -10 -35 -1 -23
12 -91 107 -91 127 0 11 45 42 62 43 4 0 23 -24 43 -52z"/>
<path d="M7313 2633 c-31 -12 -13 -54 47 -110 68 -63 74 -85 35 -132 -46 -54
-77 -51 -160 18 -27 22 -57 41 -65 41 -22 0 -40 -20 -40 -45 0 -23 71 -88 129
-117 43 -22 110 -23 137 -3 29 22 44 18 95 -25 50 -42 79 -50 99 -25 18 22 4
48 -48 93 l-48 40 4 67 4 67 -70 69 c-66 64 -87 75 -119 62z"/>
<path d="M2282 2433 c-15 -15 -66 -63 -114 -106 -94 -83 -109 -115 -67 -138
18 -9 28 -6 67 21 29 20 48 28 54 22 6 -6 11 -49 12 -96 2 -71 5 -90 21 -106
17 -17 23 -18 45 -7 23 12 25 18 22 70 -4 61 0 65 42 45 36 -16 98 4 130 43
48 57 30 125 -57 217 -63 67 -112 78 -155 35z m112 -122 c41 -56 45 -77 16
-86 -23 -7 -57 11 -103 53 l-27 26 27 28 c15 15 32 28 39 28 7 0 28 -22 48
-49z"/>
<path d="M6956 2209 c-42 -39 -76 -75 -76 -80 0 -5 48 -63 108 -129 69 -77
114 -120 127 -120 11 1 51 29 89 63 56 51 67 67 62 84 -4 12 -14 24 -23 27
-16 7 -23 3 -87 -48 l-37 -29 -22 21 -21 22 37 34 c41 37 42 39 27 67 -15 27
-40 24 -79 -12 l-34 -31 -24 25 -25 24 51 44 c51 44 63 73 39 97 -21 21 -34
14 -112 -59z"/>
<path d="M2636 2144 c-22 -21 -20 -28 15 -69 l31 -35 -58 -72 c-33 -39 -62
-76 -66 -81 -3 -6 -24 4 -47 22 -43 34 -77 38 -94 10 -16 -26 -4 -42 90 -124
117 -103 127 -109 152 -95 31 16 26 54 -11 88 l-31 30 62 76 c34 41 66 78 71
81 6 4 22 -3 36 -14 43 -34 84 -22 84 25 0 25 -173 174 -202 174 -9 0 -24 -7
-32 -16z"/>
<path d="M6717 2046 c-8 -8 -35 -48 -61 -90 -26 -42 -50 -76 -54 -76 -4 0 -17
16 -30 35 -12 19 -27 35 -33 35 -24 0 -49 -22 -49 -43 0 -13 35 -87 77 -165
79 -147 103 -171 138 -142 23 19 18 48 -16 108 -17 30 -28 56 -26 59 3 2 51
-14 106 -36 108 -44 130 -48 149 -29 16 16 15 55 0 65 -7 4 -56 24 -108 44
-52 20 -96 42 -98 48 -2 6 15 40 37 76 45 71 49 86 25 109 -19 20 -38 20 -57
2z"/>
<path d="M3031 1876 c-21 -25 -5 -60 34 -79 19 -9 35 -22 35 -28 0 -6 -20 -58
-45 -115 -52 -119 -55 -140 -20 -156 36 -16 45 -4 104 127 27 61 53 109 57
108 5 -1 24 -8 42 -15 40 -16 66 -3 70 36 3 25 -3 30 -104 77 -127 59 -155 67
-173 45z"/>
<path d="M6268 1823 c-33 -8 -32 -49 2 -133 18 -45 31 -83 29 -85 -3 -2 -49
23 -102 56 -98 59 -133 69 -155 47 -19 -19 -15 -34 46 -193 56 -147 58 -150
89 -153 53 -5 58 22 23 118 -35 95 -39 94 90 16 92 -56 126 -66 148 -44 19 19
15 35 -52 198 -62 152 -83 181 -118 173z"/>
<path d="M3455 1700 c-16 -18 -17 -21 -1 -45 9 -13 27 -27 41 -31 14 -3 25
-13 25 -22 0 -14 -50 -181 -57 -191 -2 -3 -26 1 -53 8 -40 10 -54 10 -65 1
-18 -15 -20 -54 -2 -67 6 -6 70 -29 140 -53 149 -49 180 -49 175 3 -3 28 -9
34 -53 50 -27 10 -51 20 -54 22 -4 5 50 187 59 198 4 4 27 2 53 -4 37 -10 48
-10 61 0 21 18 20 44 -1 63 -17 14 -218 88 -240 88 -5 0 -18 -9 -28 -20z"/>
<path d="M5645 1588 c-55 -32 -94 -92 -102 -155 -5 -44 -1 -61 21 -108 58
-117 208 -151 307 -68 97 82 91 247 -13 319 -57 40 -155 45 -213 12z m162
-110 c30 -28 38 -70 19 -107 -31 -60 -99 -70 -147 -22 -46 47 -35 121 23 146
39 17 75 11 105 -17z"/>
<path d="M3941 1553 c-48 -24 -83 -81 -79 -129 3 -37 6 -41 72 -74 38 -19 76
-46 84 -59 15 -22 15 -24 -3 -37 -36 -26 -75 -17 -115 26 -38 42 -58 48 -78
28 -18 -18 -15 -46 9 -85 53 -85 207 -95 269 -16 50 63 -4 169 -109 215 l-45
19 22 22 22 22 49 -28 c27 -15 54 -27 60 -27 21 0 51 40 51 69 0 35 -19 52
-56 50 -16 -1 -42 3 -57 10 -38 15 -56 14 -96 -6z"/>
<path d="M4310 1488 c-6 -13 -21 -97 -34 -188 -26 -176 -24 -200 18 -200 30 0
43 16 51 65 4 22 8 45 10 51 3 11 37 8 152 -11 l33 -6 -7 -59 c-6 -64 4 -90
38 -90 33 0 46 42 68 220 l22 175 -22 18 c-19 15 -25 16 -43 4 -16 -11 -24
-33 -34 -93 -7 -43 -14 -80 -16 -81 -3 -3 -169 19 -174 23 -2 1 2 39 8 83 10
64 10 84 0 96 -19 23 -59 19 -70 -7z"/>
<path d="M5306 1488 c-8 -12 -23 -43 -33 -70 -9 -26 -20 -48 -23 -48 -3 0 -28
23 -55 50 -52 53 -87 64 -104 31 -13 -24 21 -325 39 -346 18 -22 47 -18 64 8
12 18 13 35 5 91 -5 38 -7 71 -4 74 3 3 18 -7 34 -22 37 -36 62 -29 86 25 10
22 22 36 25 32 4 -4 20 -45 35 -91 15 -45 34 -86 43 -91 28 -14 62 5 62 35 0
31 -85 288 -106 322 -18 28 -48 28 -68 0z"/>
</g>
</svg>
